<svg width="500" height="500" viewBox="0 0 500 500" fill="none" xmlns="http://www.w3.org/2000/svg">
<path d="M56.6109 0H52.3942C49.7367 0 47.0436 0.510255 44.4569 0.884455L41.3033 1.32671C38.1142 1.73493 34.9251 2.27923 32.5156 2.72147L29.5746 3.19772C27.5129 3.47319 25.4669 3.84787 23.4444 4.32033C22.1688 4.66051 20.8577 5.06873 19.5112 5.54499C17.9401 6.09742 16.4022 6.7334 14.9048 7.45C13.6415 8.21563 12.4552 9.09251 11.3613 10.0694L11.007 10.3756L10.6526 10.6817C9.29997 11.871 8.10938 13.2198 7.10922 14.6959C6.58899 15.4385 6.1384 16.224 5.76272 17.0431L4.87687 17.7915C2.68232 19.9145 1.41488 22.7618 1.33344 25.7518C0.872794 31.4328 0.341278 38.9849 0.0578041 46.673C0.0578041 48.9522 0.0578041 51.2655 0.0578041 53.4767C0.0578041 54.3611 0.0578041 55.2116 0.0578041 56.062C0.0578041 59.77 0.0578041 63.478 0.0578041 67.186C0.0578041 71.9826 0.0578041 76.8472 0.0578041 81.5757C0.0578041 89.7741 -0.190229 98.2106 0.341285 106.511C0.610946 110.608 1.13156 114.686 1.9004 118.724C2.51688 121.917 3.71648 124.98 5.44383 127.772C8.63156 132.503 13.2945 136.147 18.7671 138.182C21.4324 139.325 24.1945 140.246 27.0233 140.938C29.3619 141.482 31.7715 141.822 34.1101 142.162C37.441 142.604 40.8072 142.945 43.6774 143.217C46.5475 143.489 49.8075 143.727 53.2092 143.897C56.6109 144.067 59.0913 144.135 61.6426 144.135C65.6942 144.158 69.7428 143.919 73.7611 143.421L75.3556 143.251C77.3793 143.033 79.3899 142.715 81.3795 142.298C83.1517 141.908 84.902 141.431 86.6237 140.87C90.4038 139.655 94.0769 138.154 97.6083 136.379C98.9053 135.715 100.16 134.977 101.364 134.168V134.168C103.424 132.917 105.347 131.469 107.105 129.848C109.989 127.178 112.385 124.061 114.192 120.629C116.442 116.324 118.075 111.747 119.046 107.021C119.89 102.848 120.505 98.6355 120.889 94.4006C121.491 88.6175 121.597 82.6983 121.739 76.9492V75.1463C121.739 68.0705 121.952 61.539 121.952 55.1095C121.971 47.9398 121.187 40.7888 119.613 33.7801C118.713 29.969 117.358 26.2705 115.573 22.7582C114.094 19.8617 112.021 17.2815 109.479 15.1721C107.322 13.3865 104.941 11.8666 102.392 10.6477C98.7507 9.06682 95.0112 7.70345 91.1947 6.56549L89.4939 6.02124C87.3324 5.34088 85.0646 4.62646 82.8323 4.01413C75.8898 2.07587 68.7708 0.777309 61.5717 0.13605C60.2606 0.0680136 58.418 0 56.6109 0Z" fill="#03A9F4"/>
<path d="M257.772 85.8275C259.85 85.8275 261.941 85.8275 264.043 85.8275C269.12 86.0703 274.169 86.7073 279.138 87.7325C281.241 88.1557 283.304 88.7475 285.304 89.5015C287.976 90.39 290.514 91.614 292.851 93.1415C295.478 94.7661 297.5 97.1481 298.627 99.9451C299.339 101.411 299.943 102.923 300.434 104.469C301.082 106.472 301.567 108.519 301.887 110.593C303.287 120.135 303.714 129.785 303.163 139.406C303.163 143.931 302.95 148.489 302.738 153.014C302.613 158.067 302.188 163.11 301.462 168.118C301.269 169.931 300.84 171.713 300.186 173.424C299.641 174.889 298.977 176.311 298.202 177.677C297.423 178.98 296.534 180.22 295.544 181.385C294.685 182.476 293.699 183.469 292.603 184.344C291.49 185.177 290.304 185.917 289.06 186.555C288.169 187.015 287.246 187.413 286.296 187.746C285.247 188.175 284.169 188.538 283.072 188.835C282.002 189.13 280.913 189.357 279.812 189.515C278.146 189.719 276.516 189.991 274.851 190.093C270.103 190.4 265.354 190.468 260.677 190.332L253.236 190.025L249.693 189.719C248.051 189.578 246.418 189.351 244.803 189.039C243.398 188.824 242.021 188.47 240.692 187.984C238.912 187.354 237.213 186.532 235.625 185.535C233.933 184.427 232.478 183.018 231.338 181.385C230.29 179.769 229.434 178.046 228.786 176.248C227.876 173.628 227.316 170.907 227.121 168.152C226.648 163.949 226.459 159.722 226.554 155.497C226.554 146.142 226.944 136.753 227.085 127.398C227.085 122.862 227.085 118.326 227.085 113.791V111.988C226.879 110.135 226.796 108.271 226.837 106.409C226.837 106 226.837 105.592 226.837 105.184C226.837 103.449 226.837 101.782 226.589 100.013C226.55 99.0429 226.74 98.0768 227.145 97.1872C227.55 96.2975 228.16 95.5075 228.928 94.8764C229.224 94.3169 229.567 93.7821 229.956 93.2775C231.302 91.4024 233.118 89.8818 235.235 88.8551C236.547 88.2177 237.909 87.683 239.31 87.2563C240.325 86.9967 241.354 86.7923 242.393 86.644C245.099 86.2078 247.835 85.9577 250.578 85.8956L257.772 85.8275ZM245.122 98.5844C244.306 98.7249 243.501 98.9181 242.712 99.1627L241.932 99.6049L241.684 99.843V100.013C241.968 104.333 242.216 108.654 242.322 113.008C242.606 122.08 242.842 131.219 243.031 140.427C243.031 149.169 243.031 157.878 244.271 166.553C244.567 168.55 245.041 170.519 245.688 172.438V172.676L246.397 173.05C248.064 173.578 249.77 173.987 251.5 174.275C255.823 174.751 260.181 175.057 264.539 175.295C268.987 175.585 273.45 175.585 277.898 175.295C279.44 175.042 280.957 174.667 282.434 174.173L283.532 173.561C283.996 173.143 284.434 172.7 284.843 172.234C285.371 171.46 285.844 170.653 286.261 169.819C286.614 168.875 286.898 167.909 287.111 166.927C287.855 158.488 288.138 150.017 287.962 141.549C288.169 132.618 287.897 123.682 287.147 114.777C286.713 111.664 285.966 108.6 284.914 105.626L284.56 105.048L283.993 104.469C282.856 103.781 281.672 103.168 280.449 102.633C279.599 102.326 278.784 102.02 277.898 101.782C277.012 101.544 275.205 101.068 273.859 100.762C271.314 100.137 268.735 99.6485 266.134 99.2988C262.591 98.8905 259.295 98.5504 255.858 98.3463L249.763 98.3802C248.213 98.3516 246.663 98.4198 245.122 98.5844V98.5844Z" fill="#03A9F4"/>
<path d="M362.267 316.097C366.838 316.097 371.445 316.097 376.016 316.403C378.319 316.403 380.587 316.709 382.89 316.709C385.193 316.709 387.142 316.709 389.268 316.709C394.347 316.837 399.402 317.429 404.363 318.478C408.757 319.431 413.186 320.247 417.58 321.268C423.13 322.109 428.438 324.043 433.171 326.949C434.739 328.003 436.188 329.211 437.494 330.555C438.913 331.979 440.106 333.595 441.038 335.351C442.314 337.804 443.347 340.366 444.12 343.006C445.325 347.122 446.388 351.272 447.487 355.422C449.79 363.927 451.243 372.431 452.66 381.276C453.404 385.732 454.184 390.189 454.822 394.679C455.601 400.02 456.097 405.395 456.416 410.804C456.912 419.717 457.337 428.629 457.054 437.542C457.054 442.509 456.664 447.475 456.381 452.442C456.063 457.707 455.459 462.953 454.574 468.159C454.052 471.165 453.123 474.093 451.81 476.867C450.747 478.978 449.401 480.945 447.806 482.718C445.986 484.763 443.832 486.51 441.427 487.889C439.347 489.081 437.18 490.127 434.943 491.019H434.695L433.526 491.495L433.029 491.699C430.868 492.55 428.671 493.4 426.439 494.149C424.206 494.897 422.009 495.509 419.777 496.122L415.596 497.244C412.704 497.919 409.768 498.407 406.808 498.707C404.611 498.979 402.343 499.183 400.111 499.353C390.335 500.006 380.53 500.165 370.736 499.83C360.514 499.677 350.322 498.721 340.263 496.972C335.735 496.163 331.263 495.096 326.868 493.774C324.036 492.928 321.256 491.929 318.541 490.781C316.483 489.969 314.541 488.905 312.766 487.617C310.454 486.097 308.489 484.141 306.99 481.868C305.962 480.173 305.21 478.338 304.757 476.425C304.209 473.673 303.854 470.888 303.694 468.091C303.411 463.77 303.305 459.45 303.446 455.13C304.12 436.352 304.439 417.539 304.828 398.761C305.076 387.127 305.324 375.493 305.431 363.859C305.108 363.513 304.823 363.137 304.58 362.736C303.946 361.706 303.615 360.531 303.624 359.334C303.358 354.938 303.358 350.531 303.624 346.135C303.513 340.98 304.602 335.866 306.813 331.167C308.391 328.097 310.849 325.524 313.9 323.751C316.152 322.609 318.529 321.708 320.986 321.064C323.077 320.485 325.168 319.771 327.329 319.329C329.491 318.887 331.475 318.41 333.565 318.104C335.656 317.798 337.747 317.458 339.837 317.118C342.566 316.709 345.294 316.437 348.058 316.199C352.523 316.097 357.448 316.097 362.267 316.097ZM335.975 332.018L330.589 332.766L331.758 332.596C329.668 332.97 327.613 333.446 325.557 333.991C324.14 334.365 322.723 334.705 321.341 335.181L320.065 335.828L319.711 336.202C319.286 336.814 318.896 337.393 318.506 338.039C318.116 338.685 318.187 339.264 318.045 339.91C317.762 342.767 317.762 345.693 317.726 348.585C317.691 351.476 317.726 353.415 317.726 355.83V357.94C317.939 376.513 318.364 395.121 318.789 413.695C319.002 423.323 319.179 432.916 319.427 442.509C319.64 450.877 319.888 459.246 320.915 467.546C321.156 469.435 321.559 471.301 322.12 473.125V473.431L323.041 474.282C324.331 475.101 325.681 475.828 327.081 476.459C330.729 477.802 334.456 478.938 338.243 479.861C340.369 480.371 342.495 480.881 344.656 481.256C346.818 481.63 349.653 482.072 352.168 482.412C361.584 483.366 371.048 483.809 380.516 483.739C385.122 483.739 389.693 483.739 394.264 483.739C398.835 483.739 402.662 483.229 406.844 482.752C410.948 482 414.996 480.988 418.962 479.725C421.584 478.976 424.135 478.058 426.687 477.071L427.856 476.561C429.671 475.773 431.413 474.84 433.065 473.772L434.447 472.513C434.837 471.935 435.191 471.322 435.545 470.71C436.06 469.211 436.451 467.675 436.715 466.118C437.169 461.879 437.393 457.621 437.388 453.361C437.388 448.394 437.388 443.393 437.388 438.427C437.388 433.46 437.175 429.14 436.927 424.513C436.431 415.975 436.006 407.504 434.907 399C434.057 393.08 433.065 387.195 432.25 381.31C431.435 375.425 430.266 368.689 428.707 362.396C427.998 359.198 427.289 355.966 426.474 352.769C425.659 349.571 425.092 347.292 424.136 344.638C423.781 344.026 423.427 343.414 423.037 342.835C422.554 342.292 422.033 341.781 421.478 341.305C420.919 340.954 420.34 340.636 419.742 340.352C415.426 338.846 411.025 337.574 406.56 336.542C404.151 335.964 401.741 335.351 399.473 334.705C397.528 334.183 395.552 333.774 393.556 333.48C391.713 333.276 390.012 333.14 388.028 333.004C386.044 332.868 383.953 333.004 381.898 332.732L375.343 332.256C370.523 331.95 365.669 331.677 360.814 331.473C355.96 331.269 351.495 331.031 346.853 331.201C343.274 331.167 339.625 331.575 335.975 332.018Z" fill="#99DDC6"/>
<path d="M398.197 120.356H401.741C406.489 120.356 411.237 120.662 415.915 120.934C420.592 121.207 425.553 121.513 430.372 121.717C435.191 121.921 439.478 122.431 444.049 122.703C448.62 122.975 453.404 123.418 458.223 123.724C463.405 123.893 468.545 124.67 473.531 126.037C476.149 126.892 478.686 127.962 481.114 129.235C483.895 130.587 486.374 132.447 488.413 134.712C490.126 136.668 491.567 138.829 492.701 141.141C493.799 143.625 494.791 146.108 495.642 148.693C497.052 152.805 498.084 157.029 498.724 161.314C499.487 166.454 499.913 171.635 500 176.826C499.994 181.079 499.722 185.328 499.185 189.549C498.654 194.652 498.264 199.755 497.307 204.823C496.535 209.271 495.349 213.642 493.764 217.886C492.818 220.358 491.632 222.739 490.22 224.996C489.539 225.973 488.806 226.916 488.023 227.82C487.574 228.443 487.064 229.024 486.5 229.555C485 230.867 483.347 232.009 481.574 232.956C476.441 235.412 470.827 236.803 465.097 237.039C460.385 237.549 455.672 237.923 450.924 238.195C446.175 238.467 441.463 238.467 436.75 238.501C432.037 238.535 427.36 238.501 422.576 238.501C417.793 238.501 412.619 238.501 407.623 238.229C402.627 237.957 398.587 237.617 394.087 237.311C389.587 237.005 384.697 236.562 379.913 236.018C376.689 235.644 373.464 235.27 370.275 234.657C367.883 234.213 365.517 233.645 363.188 232.956C357.049 231.599 351.458 228.548 347.101 224.18C345.87 222.817 344.756 221.361 343.77 219.825C342.798 218.222 341.98 216.537 341.325 214.791C340.317 211.914 339.663 208.934 339.376 205.912C338.934 201.648 338.934 197.351 339.376 193.087C339.731 188.324 340.369 183.562 341.042 178.833L342.424 168.968C343.097 163.457 343.735 157.98 344.692 152.537C345.092 150.363 345.637 148.216 346.322 146.108C346.962 144.091 347.732 142.115 348.625 140.189C349.627 138.245 350.876 136.428 352.345 134.78C354.13 132.618 356.23 130.716 358.582 129.133L359.609 128.997L360.283 128.588C362.264 127.473 364.338 126.518 366.484 125.731C371.707 123.473 377.374 122.313 383.102 122.329V122.329C384.122 121.789 385.269 121.508 386.433 121.513H387.461C389.87 121.207 392.244 120.934 394.548 120.798C395.859 120.39 397.028 120.356 398.197 120.356ZM385.37 138.964C384.679 139.041 383.993 139.155 383.315 139.304C381.748 139.638 380.208 140.082 378.709 140.631C376.37 141.583 374.118 142.721 371.976 144.033L371.267 144.475C370.78 144.914 370.318 145.38 369.885 145.87C369.24 146.772 368.66 147.715 368.149 148.693C367.207 151.551 366.497 154.474 366.023 157.436C364.96 165.668 364.287 173.969 363.224 182.201C362.657 186.794 362.232 191.386 361.984 196.013C361.736 199.603 361.736 203.206 361.984 206.796C362.232 207.783 362.48 208.769 362.799 209.756C363.154 210.399 363.544 211.023 363.968 211.627L364.464 212.137C365.479 212.753 366.532 213.31 367.618 213.804C370.433 214.86 373.322 215.724 376.264 216.39C379.417 217.104 382.677 217.512 385.902 217.988C389.799 218.465 393.697 218.839 397.595 219.315C402.449 219.927 407.269 220.302 412.158 220.54C421.761 221.05 431.399 221.152 441.037 221.288C449.808 221.453 458.579 221.056 467.294 220.098C468.919 219.872 470.52 219.508 472.078 219.009L473.566 218.192L474.239 217.512C475.214 216.083 476.067 214.582 476.791 213.022C478.172 208.832 479.203 204.544 479.873 200.197C480.228 197.407 480.476 194.618 480.688 191.828C480.901 189.039 481.326 185.739 481.574 182.677C481.822 179.616 481.858 176.35 481.822 173.152C481.787 169.955 481.645 166.995 481.291 163.933C480.905 160.944 480.337 157.98 479.59 155.055C478.854 152.063 477.955 149.111 476.897 146.21C476.516 145.411 476.078 144.638 475.586 143.897L475.267 143.59C474.283 142.982 473.266 142.426 472.22 141.924C470.116 141.171 467.945 140.601 465.735 140.223C462.192 139.917 458.648 139.848 455.388 139.61C451.42 139.304 447.451 139.168 443.482 138.862C438.84 138.556 434.199 138.182 429.557 137.977C424.915 137.773 420.663 137.569 416.198 137.297H414.001C404.398 137.807 394.831 137.977 385.37 138.964V138.964Z" fill="#4D4962"/>
<path d="M244.483 272.418C244.483 273.268 244.483 274.085 244.483 274.935C244.483 278.337 244.271 281.739 244.058 285.141C243.846 288.542 243.598 292.148 243.42 295.652C243.243 299.156 242.889 302.252 242.676 305.586C242.464 308.919 242.109 312.389 241.826 315.791C241.703 319.568 241.096 323.315 240.019 326.949C239.356 328.845 238.514 330.678 237.503 332.426C236.455 334.47 234.984 336.287 233.18 337.767C231.648 339.01 229.943 340.041 228.113 340.828C226.17 341.654 224.183 342.381 222.16 343.006C218.914 344.026 215.582 344.777 212.203 345.251C208.151 345.795 204.068 346.101 199.978 346.169C196.614 346.152 193.254 345.947 189.915 345.557C185.911 345.183 181.871 344.911 177.902 344.196C174.388 343.632 170.936 342.755 167.591 341.577C165.63 340.865 163.744 339.977 161.957 338.923C161.177 338.447 160.469 337.869 159.76 337.359C159.275 337.001 158.813 336.615 158.378 336.202C157.309 335.123 156.381 333.924 155.614 332.63C153.667 328.902 152.556 324.822 152.354 320.656C151.964 317.254 151.681 313.852 151.468 310.45C151.256 307.048 151.256 303.647 151.22 300.245C151.185 296.843 151.22 293.441 151.22 290.039C151.22 286.637 151.22 282.793 151.398 279.153C151.575 275.513 151.894 272.622 152.142 269.322C152.39 266.022 152.709 262.519 153.169 259.117C153.453 256.769 153.736 254.422 154.232 252.109C154.589 250.387 155.039 248.684 155.579 247.006C156.673 242.514 159.141 238.439 162.666 235.304C163.776 234.407 164.961 233.599 166.209 232.889C167.476 232.189 168.804 231.597 170.178 231.12C172.47 230.366 174.85 229.886 177.265 229.691C180.622 229.368 184.005 229.368 187.363 229.691C191.155 229.929 194.875 230.405 198.631 230.916L206.392 231.902C210.715 232.412 215.073 232.855 219.36 233.535C221.071 233.843 222.762 234.241 224.428 234.726C226.021 235.201 227.583 235.769 229.105 236.427C230.635 237.145 232.064 238.048 233.357 239.114C235.057 240.416 236.559 241.939 237.822 243.638L238.247 244.285L238.566 244.761C239.435 246.203 240.193 247.704 240.834 249.251C242.609 253.061 243.526 257.188 243.527 261.362V261.362C243.963 262.11 244.195 262.953 244.2 263.811V264.56C244.448 266.295 244.661 267.961 244.767 269.798C244.483 270.717 244.483 271.567 244.483 272.418ZM229.849 263.097C229.849 262.587 229.849 262.076 229.566 261.6C229.289 260.445 228.934 259.309 228.503 258.198C227.716 256.499 226.792 254.861 225.739 253.3L225.349 252.789C225.022 252.424 224.666 252.083 224.286 251.769C223.575 251.297 222.829 250.877 222.053 250.51C219.734 249.825 217.365 249.302 214.967 248.945C208.482 248.197 201.962 247.687 195.442 246.938C191.899 246.53 188.356 246.224 184.564 246.02C181.732 245.85 178.892 245.85 176.06 246.02C175.267 246.172 174.485 246.377 173.721 246.632C173.202 246.863 172.704 247.136 172.233 247.448L171.843 247.823C171.353 248.559 170.903 249.32 170.497 250.102C169.675 252.153 169 254.256 168.477 256.395C167.91 258.708 167.591 261.056 167.201 263.199C166.847 266.056 166.528 268.914 166.138 271.737C165.678 275.139 165.394 278.779 165.182 282.317C164.792 289.291 164.721 296.299 164.615 303.306C164.479 309.68 164.786 316.056 165.536 322.391C165.732 323.546 166.028 324.684 166.422 325.792C166.608 326.158 166.821 326.511 167.06 326.847L167.591 327.357C168.721 328.056 169.906 328.67 171.134 329.194C174.444 330.202 177.833 330.953 181.269 331.439C183.466 331.678 185.662 331.882 187.859 332.018C190.056 332.154 192.643 332.494 194.946 332.664C197.249 332.834 199.942 332.868 202.458 332.664C204.897 332.658 207.333 332.533 209.758 332.29C212.144 332.024 214.511 331.615 216.845 331.065C219.242 330.53 221.608 329.872 223.932 329.092C224.563 328.82 225.179 328.513 225.774 328.174L225.987 327.936C226.471 327.225 226.909 326.487 227.298 325.724C227.903 324.182 228.354 322.587 228.644 320.962C228.892 318.478 228.928 315.961 229.14 313.478C229.353 310.994 229.495 307.695 229.707 304.803C229.92 301.912 230.274 298 230.416 294.598C230.558 291.196 230.735 288.1 230.947 284.869C230.947 284.324 230.947 283.814 230.947 283.27C230.735 276.908 230.593 269.968 229.849 263.097Z" fill="#4D4962"/>
</svg>
